<?xml version="1.0" encoding="UTF-8" standalone="no"?><!DOCTYPE svg PUBLIC "-//W3C//DTD SVG 1.1//EN" "http://www.w3.org/Graphics/SVG/1.1/DTD/svg11.dtd"><!-- Generated by graphviz version 2.40.1 (20161225.0304)
 --><!-- Title: simple Pages: 1 --><svg xmlns="http://www.w3.org/2000/svg" xmlns:xlink="http://www.w3.org/1999/xlink" width="152pt" height="206pt" viewBox="0.00 0.00 152.00 206.00">
<g id="graph0" class="graph" transform="scale(1 1) rotate(0) translate(4 202)">
<title>simple</title>
<polygon fill="#ffffff" stroke="transparent" points="-4,4 -4,-202 148,-202 148,4 -4,4"/>
<!-- #3 -->
<g id="node1" class="node">
<title>#3</title>
<ellipse fill="none" stroke="#000000" cx="27" cy="-45" rx="27" ry="18"/>
<text text-anchor="middle" x="27" y="-40.8" font-family="Times,serif" font-size="14.00" fill="#000000">#3</text>
</g>
<!-- c -->
<g id="node2" class="node">
<title>c</title>
<ellipse fill="none" stroke="#000000" cx="117" cy="-72" rx="27" ry="18"/>
<text text-anchor="middle" x="117" y="-67.8" font-family="Times,serif" font-size="14.00" fill="#000000">c</text>
</g>
<!-- #3&#45;&gt;c -->
<g id="edge1" class="edge">
<title>#3-&gt;c</title>
<path fill="none" stroke="#000000" d="M52.07,-52.521C61.5102,-55.3531 72.4169,-58.6251 82.564,-61.6692"/>
<polygon fill="#000000" stroke="#000000" points="81.7915,-65.0915 92.3755,-64.6126 83.803,-58.3867 81.7915,-65.0915"/>
</g>
<!-- foo -->
<g id="node3" class="node">
<title>foo</title>
<ellipse fill="none" stroke="#000000" cx="117" cy="-18" rx="27" ry="18"/>
<text text-anchor="middle" x="117" y="-13.8" font-family="Times,serif" font-size="14.00" fill="#000000">foo</text>
</g>
<!-- #3&#45;&gt;foo -->
<g id="edge2" class="edge">
<title>#3-&gt;foo</title>
<path fill="none" stroke="#000000" d="M52.07,-37.479C61.5102,-34.6469 72.4169,-31.3749 82.564,-28.3308"/>
<polygon fill="#000000" stroke="#000000" points="83.803,-31.6133 92.3755,-25.3874 81.7915,-24.9085 83.803,-31.6133"/>
</g>
<!-- #2 -->
<g id="node4" class="node">
<title>#2</title>
<ellipse fill="none" stroke="#000000" cx="27" cy="-126" rx="27" ry="18"/>
<text text-anchor="middle" x="27" y="-121.8" font-family="Times,serif" font-size="14.00" fill="#000000">#2</text>
</g>
<!-- b -->
<g id="node5" class="node">
<title>b</title>
<ellipse fill="none" stroke="#000000" cx="117" cy="-126" rx="27" ry="18"/>
<text text-anchor="middle" x="117" y="-121.8" font-family="Times,serif" font-size="14.00" fill="#000000">b</text>
</g>
<!-- #2&#45;&gt;b -->
<g id="edge3" class="edge">
<title>#2-&gt;b</title>
<path fill="none" stroke="#000000" d="M54.003,-126C62.0277,-126 70.9665,-126 79.5309,-126"/>
<polygon fill="#000000" stroke="#000000" points="79.7051,-129.5001 89.705,-126 79.705,-122.5001 79.7051,-129.5001"/>
</g>
<!-- #1 -->
<g id="node6" class="node">
<title>#1</title>
<ellipse fill="none" stroke="#000000" cx="27" cy="-180" rx="27" ry="18"/>
<text text-anchor="middle" x="27" y="-175.8" font-family="Times,serif" font-size="14.00" fill="#000000">#1</text>
</g>
</g>
</svg>